<?xml version="1.0" standalone="yes"?>
<svg xmlns="http://www.w3.org/2000/svg" width="32" height="32">
<path style="fill:#010101; stroke:none;" d="M0 0L0 7L1 7L8 1L0 0z"/>
<path style="fill:#4f4f4f; stroke:none;" d="M8.00077 0.652779C-0.974495 3.4817 -3.24602 19.6293 1.74228 26.8951C5.95176 33.0264 17.4752 33.4035 23.9992 31.3472C32.9745 28.5183 35.246 12.3707 30.2577 5.10494C26.0482 -1.02642 14.5248 -1.40354 8.00077 0.652779z"/>
<path style="fill:#010101; stroke:none;" d="M24 0L24 1L31 7L32 7L32 0L24 0z"/>
<path style="fill:#a8a8a8; stroke:none;" d="M8 7L7 9L8 7z"/>
<path style="fill:#dcdcdc; stroke:none;" d="M9 7C13.8903 13.855 18.1097 13.855 23 7C16.7853 11.2309 15.2147 11.2309 9 7z"/>
<path style="fill:#a8a8a8; stroke:none;" d="M23 7L25 9L23 7z"/>
<path style="fill:#ffffff; stroke:none;" d="M8 8C11.6106 15.8617 11.6106 16.1383 8 24C15.8617 20.3894 16.1383 20.3894 24 24C20.3894 16.1383 20.3894 15.8617 24 8C16.1383 11.6106 15.8617 11.6106 8 8z"/>
<path style="fill:#dcdcdc; stroke:none;" d="M7 9L8 10L7 9M24 9L25 10L24 9M8 10L9 11L8 10M23 10L24 11L23 10M9 11L10 12L9 11M22 11L23 12L22 11M10 12L11 13L10 12M21 12L22 13L21 12M11 13L12 14L11 13M20 13L21 14L20 13M12 14L13 15L12 14M19 14L20 15L19 14M13.3333 15.6667L13.6667 16.3333L13.3333 15.6667M18.3333 15.6667L18.6667 16.3333L18.3333 15.6667M12 17L13 18L12 17M19 17L20 18L19 17M11 18L12 19L11 18M15.6667 18.3333L16.3333 18.6667L15.6667 18.3333M20 18L21 19L20 18M10 19L11 20L10 19M14 19L15 20L14 19M17 19L18 20L17 19M21 19L22 20L21 19M9 20L10 21L9 20M13 20L14 21L13 20M18 20L19 21L18 20M22 20L23 21L22 20M8 21L9 22L8 21M12 21L13 22L12 21M19 21L20 22L19 21M23 21L24 22L23 21M7 22L8 23L7 22M11 22L12 23L11 22M20 22L21 23L20 22M24 22L25 23L24 22z"/>
<path style="fill:#a8a8a8; stroke:none;" d="M7 23L8 24L7 23z"/>
<path style="fill:#dcdcdc; stroke:none;" d="M10 23L11 24L10 23M21 23L22 24L21 23z"/>
<path style="fill:#a8a8a8; stroke:none;" d="M24 23L25 24L24 23M8 24L9 25L8 24z"/>
<path style="fill:#dcdcdc; stroke:none;" d="M9 24L10 25L9 24M22 24L23 25L22 24z"/>
<path style="fill:#a8a8a8; stroke:none;" d="M23 24L24 25L23 24z"/>
<path style="fill:#010101; stroke:none;" d="M0 25L0 32L8 32L8 31L0 25M31 25L24 31L24 32L32 32L31 25z"/>
</svg>
